<svg width="1000" height="1000" viewBox="0 0 1000 1000" fill="none" xmlns="http://www.w3.org/2000/svg">
<g clip-path="url(#clip0)">
<rect width="1000" height="1000" fill="white"/>
<path fill-rule="evenodd" clip-rule="evenodd" d="M87.4686 1146.46C84.4746 1173.91 77.6926 1204.14 90.6206 1230.04C82.4786 1230.4 89.0836 1232.76 93.4776 1233.57C95.9866 1235.51 99.3586 1236.28 102.53 1236.01C118.994 1239.49 135.99 1240.75 152.707 1242.72C361.425 1260.06 571.542 1255.45 780.65 1247.98C787.451 1247.69 792.014 1242.75 792.535 1236.09C800.199 1138.17 804.013 1039.95 803.818 941.726C800.413 907.209 826.502 920.678 812.585 875.194C801.397 827.219 784.838 780.522 763.722 736.026C749.126 707.071 735.373 676.604 713.126 652.593C706.096 651.622 700.111 644.639 694.17 640.739C688.153 639.567 683.693 634.458 677.595 632.887C665.974 629.864 639.968 623.435 630.071 631.167C629.68 631.06 629.284 630.969 628.893 630.858C626.956 633.006 624.295 631.395 622.85 629.465C617.905 625.626 596.29 625.231 593.837 619.339C581.049 607.739 577.628 583.326 577.628 569.043C572.846 563.67 572.515 564.668 566.024 561.828C559.66 553.801 551.972 546.809 543.391 541.297C495.1 509.589 425.023 543.001 413.718 598.114C395.847 612.264 377.452 626.638 355.563 634.011C344.881 628.516 332.712 626.762 321.375 626.751C312.924 626.444 301.246 621.557 295.754 630.451C203.357 660.698 147.593 748.669 107.941 832.022C102.383 843.89 95.7336 856.316 97.4346 869.837C98.6036 886.03 116.178 895.668 112.857 912.829C108.03 960.035 102.539 1007.19 97.5136 1054.38C94.1646 1085.08 90.8166 1115.77 87.4686 1146.46Z" fill="white"/>
<path fill-rule="evenodd" clip-rule="evenodd" d="M763.418 921.271C757.444 923.434 749.07 925.542 744.798 930.429C744.306 925.875 743.808 921.322 743.308 916.768C755.826 916.471 768.371 916.363 780.896 916.013C774.984 917.459 769.141 919.2 763.418 921.271M735.915 1207.72C731.607 1207.76 727.285 1208.06 722.98 1208.23C714.688 1208.55 706.396 1208.87 698.103 1209.18C681.186 1209.81 664.269 1210.42 647.35 1211.01C613.846 1212.18 580.338 1213.25 546.827 1214.24C479.806 1216.21 412.751 1217.4 345.739 1219.66C327.148 1220.28 308.558 1220.77 289.984 1221.78C280.359 1222.3 270.689 1222.75 261.11 1223.87C253.029 1224.81 245.063 1226.4 237.027 1227.58C237.566 1217.11 238.071 1206.63 238.596 1196.16C239.093 1186.26 239.557 1176.35 240.018 1166.44C271.387 1168.08 302.793 1168.75 334.204 1169.03C367.43 1169.32 400.646 1170.15 433.874 1170.21C499.655 1170.34 565.442 1169.51 631.221 1168.85C649.825 1168.67 668.431 1168.48 687.036 1168.29C696.338 1168.2 705.641 1168.11 714.943 1168.01C719.587 1167.97 724.258 1168.07 728.897 1167.87C733.849 1167.67 736.856 1166.26 740.45 1162.93C742.367 1161.15 742.447 1157.53 740.45 1155.77C737.566 1153.22 734.889 1151.27 730.891 1150.98C726.965 1150.7 722.868 1151.09 718.93 1151.14C710.292 1151.25 701.654 1151.37 693.016 1151.48C676.404 1151.7 659.793 1151.92 643.181 1152.13C609.957 1152.57 576.733 1153.02 543.511 1153.52C510.951 1154.02 478.388 1154.39 445.834 1155.21C412.595 1156.05 379.395 1157.56 346.164 1158.63C310.792 1159.76 275.438 1161.12 240.146 1163.77C240.994 1145.41 241.775 1127.04 242.51 1108.67C312.585 1112.48 382.708 1115.2 452.9 1115.32C526.028 1115.44 599.152 1114.19 672.253 1112.28C682.554 1112.01 692.855 1111.74 703.154 1111.42C708.47 1111.25 713.786 1111.1 719.102 1110.9C723.01 1110.76 727.026 1110.6 730.559 1108.73C737.531 1105.04 738.734 1094.27 730.462 1091.32C725.94 1089.71 721.143 1091.29 720.043 1095.36C719.705 1095.4 719.383 1095.42 719.102 1095.44C715.115 1095.59 711.127 1095.7 707.141 1095.82C698.502 1096.1 689.864 1096.38 681.225 1096.65C665.276 1097.15 649.326 1097.61 633.375 1098.03C600.809 1098.89 568.239 1099.6 535.666 1100.14C471.176 1101.21 406.691 1102.21 342.209 1103.68C309.003 1104.44 275.807 1105.43 242.605 1106.27C243.398 1086.3 244.147 1066.33 244.822 1046.36C244.901 1044.02 244.987 1041.68 245.072 1039.34C249.83 1040.38 254.702 1040.96 259.549 1041.65C267.96 1042.84 276.397 1043.72 284.844 1044.61C300.76 1046.29 316.728 1047.32 332.703 1048.2C365.272 1050 397.85 1051.26 430.453 1052.26C494.946 1054.22 559.519 1054.65 624.038 1054.43C659.073 1054.31 694.321 1054.77 729.339 1053.24C731.497 1053.83 733.721 1053.77 735.872 1053.07C737.638 1084.29 739.503 1115.5 741.336 1146.72C742.573 1167.78 743.664 1188.91 745.183 1209.98C742.216 1208.52 739.485 1207.69 735.915 1207.72M128.783 890.541C122.639 887.535 115.863 884.792 110.439 880.534C104.51 875.878 103.054 870.412 104.876 863.106C105.012 862.56 105.172 862.017 105.314 861.473C149.005 861.58 192.585 859.657 236.257 858.62C280.627 857.567 324.981 856.682 369.363 856.432C457.874 855.934 546.374 857.93 634.843 860.415C666.704 861.309 698.564 862.191 730.426 863.061C729.699 870.829 729.979 878.788 729.814 886.501C729.669 893.276 729.707 900.061 729.808 906.845C713.14 906.804 696.476 906.444 679.806 906.256C638.537 905.791 597.29 906.976 556.031 907.92C473.516 909.808 390.979 911.293 308.48 913.778C286.073 914.452 263.522 914.807 241.012 915.766C240.238 912.106 239.379 908.464 238.41 904.846C236.87 899.098 235.132 893.19 230.527 889.197C230.306 889.004 230 889.088 229.901 889.362C228.152 894.209 228.594 899.144 229.106 904.223C229.511 908.235 229.785 912.258 229.988 916.286C215.991 917.022 202.023 918.057 188.128 919.608C184.155 917.645 180.18 915.686 176.199 913.737C160.396 906 144.588 898.273 128.783 890.541M636.014 1034.87C603.415 1035.13 570.814 1035.16 538.216 1034.95C473.689 1034.54 409.183 1032.95 344.67 1031.67C326.715 1031.31 308.784 1030.96 290.826 1030.96C281.529 1030.96 272.201 1031.02 262.914 1031.42C257.069 1031.68 251.143 1031.72 245.325 1032.42C246.027 1013.62 246.758 994.808 246.735 976.004C308.281 985.325 370.488 987.885 432.642 989.719C495.611 991.577 558.595 992.54 621.591 992.632C639.494 992.659 657.397 992.619 675.299 992.513C683.918 992.463 692.538 992.397 701.157 992.316C705.79 992.272 710.451 992.366 715.08 992.171C719.975 991.965 722.932 990.805 726.351 987.323C728.101 985.542 728.19 982.468 726.351 980.694C720.248 974.807 713.068 976.085 705.135 976.183C697.179 976.282 689.223 976.367 681.266 976.439C665.354 976.584 649.44 976.676 633.526 976.717C602.363 976.796 571.199 976.676 540.037 976.358C477.057 975.714 414.091 974.314 351.126 972.839C316.316 972.024 281.513 972.248 246.731 973.936C246.718 970.814 246.689 967.691 246.628 964.569C246.399 952.745 245.247 940.921 243.445 929.228C260.491 929.169 277.536 928.805 294.505 928.587C335.768 928.058 377.022 927.227 418.28 926.399C459.206 925.579 500.132 924.758 541.058 923.937C581.958 923.117 622.984 923.058 663.835 920.85C685.881 919.658 707.935 918.038 729.998 917.187C730.041 919.212 730.084 921.238 730.127 923.262C730.658 948.107 731.629 972.928 732.882 997.747C733.484 1009.67 734.119 1021.6 734.772 1033.52C734.456 1033.49 734.133 1033.47 733.801 1033.47C701.228 1033.25 668.593 1034.61 636.014 1034.87M120.178 819.097C123.91 809.495 127.964 799.958 132.346 790.55C150.95 795.801 170.795 798.51 189.995 800.313C210.435 802.234 230.915 803.313 251.439 803.732C291.901 804.558 332.363 802.639 372.782 800.969C455.918 797.536 539.046 795.029 622.26 794.868C645.499 794.822 668.737 794.93 691.974 795.192C703.592 795.323 715.21 795.48 726.827 795.679C732.802 795.782 738.776 795.895 744.751 796.018C747.396 796.072 750.073 796.268 752.716 796.188C756.251 796.081 758.833 795.018 762.114 793.739C765.881 792.272 768.103 785.974 763.402 783.887C758.706 781.801 754.938 780.579 749.729 780.466C744.087 780.345 738.444 780.233 732.802 780.129C722.512 779.941 712.222 779.783 701.932 779.655C681.02 779.394 660.105 779.284 639.191 779.287C598.026 779.292 556.861 779.779 515.708 780.747C433.088 782.69 350.653 788.449 268.063 790.92C245.299 791.602 222.492 791.735 199.727 791.052C177.677 790.391 155.674 788.535 133.651 787.754C141.258 771.718 149.865 756.101 159.577 741.252C196.29 742.542 232.924 741.588 269.645 740.47C288.914 739.883 308.183 739.288 327.45 738.627C337.084 738.297 346.718 737.967 356.352 737.637C361.003 737.477 365.654 737.318 370.305 737.159C375.315 736.987 380.588 737.311 385.454 735.994C386.335 735.755 387.035 735.245 387.562 734.595C400.514 741.258 414.213 746.514 428.3 750.409C458.878 758.864 491.766 762.036 523.391 759.434C548.771 757.346 574.064 751.064 596.378 738.764C646.771 743.403 697.87 741.223 748.37 740.893C753.195 740.862 755.202 736.442 754.395 732.796C770.602 767.723 781.338 805.588 791.387 842.418C797.631 865.307 803.185 888.339 808.472 911.454C808.252 911.473 808.033 911.493 807.814 911.514C808.427 908.982 807.049 905.997 803.582 905.917C783.144 905.448 762.64 906.622 742.194 906.811C741.619 901.697 741.044 896.582 740.438 891.47C739.61 884.506 738.624 877.559 737.781 870.596C737.476 868.071 737.192 865.633 736.845 863.235C753.033 863.675 769.22 864.12 785.408 864.547C795.914 864.825 795.895 848.555 785.408 848.235C696.452 845.511 607.492 842.759 518.506 841.249C429.466 839.737 340.119 838.805 251.147 843.37C202.662 845.856 154.297 849.181 106.415 857.383C110.134 844.405 115.322 831.591 120.178 819.097M195.897 695.471C197.508 696.679 198.024 697.441 200.432 697.864C203.043 698.321 205.728 698.467 208.364 698.725C214.004 699.277 219.658 699.483 225.317 699.751C236.617 700.288 247.916 700.856 259.224 701.2C281.671 701.881 304.599 702.846 327.036 701.848C332.525 701.604 335.022 697.078 334.523 692.954C338.731 698.165 343.332 703.057 348.232 707.517C356.11 714.686 364.614 721.041 373.579 726.649C367.763 726.862 361.841 727.591 356.352 727.827C347.05 728.225 337.748 728.624 328.446 729.024C308.844 729.866 289.244 730.77 269.645 731.686C233.372 733.381 197.223 735.491 161.088 738.951C171.408 723.442 182.968 708.813 195.897 695.471M786.267 770.804C770.941 728.736 751.182 685.037 715.624 656.143C697.347 641.291 676.985 631.017 653.925 626.15C653.217 626 652.935 627.008 653.626 627.235C693.504 640.318 723.015 674.936 742.978 710.414C746.595 716.843 749.947 723.426 753.117 730.108C752.085 728.85 750.506 728.013 748.37 728.049C701.214 728.841 653.503 728.042 606.453 732.649C607.654 731.849 608.855 731.05 610.033 730.209C622.886 721.049 634.451 709.841 644.011 697.147C649.769 698.607 655.831 698.963 661.706 699.522C669.547 700.267 677.442 700.608 685.308 701.031C693.162 701.452 701.046 701.492 708.909 701.682C714.313 701.813 724.876 702.71 724.882 694.444C724.888 686.169 714.314 687.045 708.909 687.153C701.045 687.308 693.165 687.331 685.308 687.7C677.776 688.052 670.199 688.337 662.689 689.011C658.108 689.422 653.395 689.692 648.789 690.42C656.284 679.237 662.251 667.056 666.234 654.208C666.635 652.915 666.767 651.707 666.701 650.588C668.391 648.805 669.469 646.362 669.469 644.124C669.469 638.802 665.322 635.684 660.475 635.129C641.291 632.936 620.155 629.811 604.695 617.198C597.718 611.506 592.106 604.777 586.824 597.536C580.889 589.397 578.664 579.143 578.641 569.18C578.64 568.621 577.713 568.452 577.628 569.043C574.723 589.242 578.913 612.3 593.41 627.434C607.644 642.293 626.979 647.859 646.6 651.11C638.51 674.217 625.157 694.514 606.41 710.475C585.52 728.26 559.076 737.772 532.116 741.362C503.03 745.235 472.545 743.352 443.942 737.03C416.388 730.938 389.434 720.044 367.008 702.659C355.694 693.887 345.286 683.547 336.217 672.481C328.732 663.348 322.993 653.163 316.568 643.379C340.539 649.951 369.521 640.973 389.6 628.291C401.427 620.823 411.788 611.499 420.3 600.407C424.498 594.936 428.233 589.161 431.313 582.986C432.915 579.774 434.355 576.47 435.68 573.135C436.499 571.075 437.302 568.959 437.302 566.694C437.297 565.026 436.877 563.472 436.041 562.032C434.323 560.209 433.981 559.681 435.015 560.445C433.328 556.991 428.451 556.114 425.331 557.906C424.168 558.575 421.433 559.87 420.088 562.032C419.179 563.494 418.69 565.242 418.108 566.846C417.189 569.378 416.263 571.881 415.109 574.319C412.429 579.983 409.215 585.389 405.549 590.47C398.848 599.758 390.235 608.157 380.853 614.712C371.004 621.593 360.389 627.218 348.876 630.731C336.716 634.44 324.68 635.548 312.134 636.907C312 636.721 311.87 636.534 311.736 636.349C311.494 636.015 310.971 636.123 310.95 636.562C310.94 636.772 310.945 636.981 310.939 637.191C309.15 638.03 309.002 640.551 310.995 641.519C311.734 653.124 316.742 664.553 322.199 674.596C324.472 678.779 327.04 682.832 329.822 686.747C328.999 686.433 328.074 686.234 327.036 686.194C304.591 685.334 281.669 686.442 259.224 687.263C248.247 687.665 237.282 688.28 226.314 688.868C220.661 689.17 214.994 689.363 209.361 689.948C206.544 690.241 203.71 690.471 200.908 690.893C200.705 690.924 200.516 690.956 200.338 690.988C207.27 684.161 214.577 677.694 222.291 671.66C247.597 651.864 276.661 635.735 307.671 626.963C307.965 626.88 307.922 626.377 307.597 626.411C245.919 632.718 194.542 671.585 158.602 720.386C138.66 747.465 123.535 777.442 110.52 808.353C103.96 823.934 97.7527 839.792 92.5547 855.885C89.9127 864.063 88.7217 872.738 92.5057 880.762C95.4077 886.918 100.763 891.493 106.376 895.127C106.749 895.37 107.133 895.594 107.51 895.831C101.772 915.821 97.9277 936.333 94.2397 956.783C90.2337 978.999 86.7387 1001.31 83.7367 1023.68C77.7367 1068.4 73.1407 1113.21 71.1337 1158.3C70.5787 1170.78 70.2077 1183.26 70.0457 1195.74C69.9647 1201.98 70.0007 1208.23 70.0857 1214.47C70.1827 1221.46 69.2367 1229.34 72.7937 1235.58C77.5467 1243.91 86.7777 1241.04 90.8377 1235.34C90.8967 1235.42 90.9577 1235.5 91.0177 1235.58C91.3857 1234.85 91.6937 1234.13 91.9567 1233.41C92.3937 1232.45 92.6787 1231.44 92.7827 1230.42C93.5477 1226.55 93.2597 1222.62 93.2287 1218.42C93.1837 1212.5 93.2177 1206.58 93.2347 1200.67C93.2677 1189.5 93.3947 1178.33 93.7127 1167.17C94.3497 1144.84 95.5937 1122.53 97.2947 1100.26C100.675 1056.02 105.661 1011.99 109.928 967.832C112.1 945.351 114.72 922.812 115.172 900.211C120.439 902.984 125.874 905.497 131.131 908.173C140.885 913.138 150.638 918.103 160.391 923.068C169.85 927.883 179.323 932.668 188.8 937.45C198.356 942.27 207.848 948.644 218.599 949.83C224.346 950.463 226.426 942.721 223.04 939.107C218.618 934.385 212.746 931.451 206.843 928.703C214.686 928.99 222.539 929.144 230.396 929.204C230.504 939.09 230.155 948.997 229.659 958.861C228.439 983.055 226.743 1007.21 225.137 1031.38C221.799 1081.62 218.568 1131.89 216.047 1182.18C215.43 1194.5 214.812 1206.82 214.194 1219.13C213.894 1225.12 213.477 1231.12 213.307 1237.11C213.117 1243.83 213.282 1252.26 219.505 1256.41C223.901 1259.34 228.632 1257.96 231.932 1253.93C236.345 1248.54 236.338 1240.73 236.693 1234.11C236.775 1232.58 236.848 1231.06 236.927 1229.53C243.667 1230.4 250.358 1231.61 257.127 1232.27C265.395 1233.07 273.715 1233.55 282.019 1233.76C298.952 1234.2 315.858 1234.35 332.796 1234.35C366.316 1234.35 399.833 1233.78 433.348 1233.24C500.38 1232.16 567.404 1230.28 634.413 1228.2C652.99 1227.62 671.566 1227.02 690.142 1226.39C699.761 1226.06 709.38 1225.72 719 1225.38C728.105 1225.06 738.052 1226.24 746.066 1221.51C746.298 1224.39 746.534 1227.27 746.787 1230.14C747.268 1235.59 751.097 1240.27 756.912 1240.27C762.376 1240.27 767.072 1235.63 767.037 1230.14C764.996 1180.46 760.579 1130.77 757.08 1081.17C753.867 1035.61 750.855 989.991 746.26 944.542C747.564 945.385 749.157 945.907 751.036 945.915C757.039 945.94 763.031 942.217 768.647 940.238C774.314 938.242 780.074 936.514 785.912 935.097C789.368 934.258 792.838 933.555 796.319 932.956C795.898 940.067 796.006 947.241 795.874 954.326C795.671 965.217 795.333 976.104 795.068 986.993C794.547 1008.45 794.362 1029.9 793.952 1051.36C793.126 1094.61 791.766 1137.85 789.454 1181.05C788.819 1192.92 788.105 1204.78 787.312 1216.65C786.894 1222.91 786.454 1229.17 785.991 1235.42C785.538 1241.57 784.478 1248.11 786.793 1254C786.867 1253.96 786.94 1253.92 787.013 1253.87C788.628 1258.95 795.727 1261.39 799.081 1255.61C804.308 1246.6 803.103 1233.69 803.703 1223.56C804.348 1212.69 804.926 1201.82 805.438 1190.94C806.462 1169.18 807.172 1147.41 807.584 1125.63C808.408 1082.06 808.268 1038.42 805.604 994.915C804.875 983.019 803.855 971.145 802.808 959.275C802.023 950.377 801.59 941.236 800.202 932.333C806.99 931.332 813.831 930.751 820.738 930.58C827.423 930.413 831.734 924.384 830.317 918.003C819.22 868.02 803.782 818.884 786.267 770.804" fill="black"/>
<path fill-rule="evenodd" clip-rule="evenodd" d="M670.263 320.318C681.641 312.146 664.675 285.259 658.911 277.259C653.897 266.823 648.883 256.386 643.868 245.949C644.478 237.39 636.12 229.775 627.861 232.379C620.676 227.226 608.642 229.693 604.99 237.761C525.543 203.159 388.077 217.554 380.968 324.326C365.6 354.726 350.368 385.386 336.733 416.607C317.815 417.623 308.645 440.606 319.908 455.459C321.407 479.578 336.698 481.487 357.112 480.414C365.31 482.573 373.808 483.743 379.956 490.074C384.629 494.849 387.805 500.904 390.87 506.779C405.015 533.885 422.986 557.333 447.346 576.084C485.229 604.435 536.511 624.79 583.749 610.989C685.306 571.107 705.25 411.721 670.263 320.318V320.318Z" fill="white"/>
<path fill-rule="evenodd" clip-rule="evenodd" d="M458.32 164.993C524.67 149.583 599.21 170.263 645.26 221.213C648.5 224.793 648.15 229.453 645.3 232.473C646.63 233.553 647.93 234.663 649.25 235.773C650.63 236.943 650.43 239.293 649.25 240.483C648.08 241.653 645.65 241.893 644.54 240.483L642.897 238.415C642.079 237.382 641.27 236.345 640.49 235.283C639.54 235.633 638.61 236.003 637.68 236.363C651.75 245.713 663.48 258.133 671.52 273.083C680.22 289.253 685.77 306.513 689.38 324.473C695.815 356.511 696.748 389.369 695.888 421.948L695.84 423.693C694.73 462.963 690.9 502.883 674.34 538.993C661.06 567.933 637.46 594.543 607.87 607.213C590.83 614.503 572.51 617.613 554 616.313C544.24 615.633 534.51 614.093 525.01 611.743L522.728 611.176C514.073 609.009 505.098 606.496 497.71 601.543C490.13 596.453 495.24 586.343 503.6 587.573C513.67 589.063 523.26 593.263 533.25 595.443C543.02 597.583 552.91 598.703 562.92 598.413C580.63 597.913 596.76 592.473 611.4 582.593C667.37 544.803 674.17 468.823 675.63 407.423C676.34 377.423 675.24 347.033 668.34 317.723C661.71 289.543 650.3 261.793 634.15 237.723C630.59 239.053 627.03 240.163 623.24 240.513C616.484 244.574 608.45 244.682 600.638 244.683L599.55 244.683C591.42 244.673 583.29 244.193 575.2 243.463C546.57 240.923 517.11 234.483 488.33 238.583L487.154 238.755C475.304 240.537 460.62 244.277 451.92 252.803C442.52 262.003 448.82 279.413 456.26 284.943C461.07 288.523 462.57 296.583 456.26 299.833C443.8 306.263 413.64 302.693 410.25 306.253C406.18 310.508 406.465 316.994 406.348 322.516L406.34 322.883C405.92 338.603 406.31 354.273 407.64 369.953C408.92 385.113 411.83 400.303 412.48 415.503C412.7 420.513 406.65 422.033 403.34 419.283C402.69 418.743 402.02 418.233 401.35 417.773C395.34 413.513 388.51 411.713 381.18 410.573C380.795 410.512 380.494 410.32 380.277 410.066L380.19 409.953L379.41 410.593C380.93 412.483 382.23 414.623 383.26 417.023C383.47 417.503 383.02 418.113 382.49 417.793C372.35 411.763 361.31 409.203 349.64 411.643C339.14 413.833 329.64 420.493 326.56 431.153C323.73 440.963 325.81 452.273 332.16 460.343C341.55 472.303 356.8 471.223 370.48 471.773C373.16 471.883 376.15 473.183 377.4 475.743C378.87 478.763 378.77 480.823 377.4 483.833C377.21 484.263 376.96 484.653 376.67 485.003C377.828 485.961 378.924 487.01 379.992 488.079L383.564 491.677C386.007 494.144 388.437 496.633 390.78 499.183C397.66 506.683 404.13 514.663 410.22 522.813L410.782 523.574C417.916 533.332 425.315 547.424 437.68 550.503C441.92 551.563 445.86 553.653 447.12 558.243C448.38 562.833 445.41 567.283 441.42 569.203C434.5 572.533 425.72 568.573 420.01 564.373C407.696 555.302 399.651 540.504 392.087 527.477L390.016 523.917C386.121 517.195 382.316 510.394 379.07 503.333C377.22 499.303 375.23 495.303 373.51 491.213C373.01 490.023 372.51 488.813 372.12 487.573C371.57 487.693 371.01 487.773 370.48 487.803C353.97 488.883 334.96 486.263 323.03 473.733C306.58 456.463 304.65 425.583 323.34 409.103C325.31 407.363 327.53 405.833 329.93 404.523C326.59 398.873 324.38 392.323 322.75 386.173C320.37 377.193 319.04 368.043 318.38 358.783C317.05 339.893 319.26 320.663 323.8 302.313C340.26 235.803 390.8 180.673 458.32 164.993ZM338.75 440.983C335.483 422.034 373.4 436.046 381.668 437.367L381.91 437.403C391.394 438.719 386.108 455.355 376.774 450.4L376.49 450.243C371.441 447.349 365.886 445.275 360.59 442.824L359.46 442.293C355.25 440.273 341.34 431.203 339.83 440.983C339.75 441.523 338.84 441.513 338.75 440.983Z" fill="black"/>
<path fill-rule="evenodd" clip-rule="evenodd" d="M595.042 521.159C587.675 523.293 579.768 523.483 572.259 521.28C565.448 519.281 558.455 514.882 553.442 509.062C548.989 503.892 546.105 497.608 546.219 490.901C546.232 490.135 546.506 489.496 546.927 488.999C547.38 488.465 548.014 488.098 548.693 487.939C549.391 487.775 550.128 487.833 550.757 488.119C551.326 488.377 551.813 488.816 552.118 489.457C552.888 490.469 553.655 491.466 554.426 492.435C560.62 500.084 566.618 505.799 575.932 507.85C580.985 508.962 586.032 508.469 590.663 506.771C595.62 504.954 600.102 501.76 603.613 497.671C605.2 495.824 607.073 495.07 608.905 495.057C610.982 495.043 613.034 496.007 614.579 497.549C616.099 499.065 617.116 501.124 617.209 503.279C617.29 505.17 616.673 507.145 615.032 508.907C609.626 514.711 602.621 518.964 595.042 521.159ZM594.814 425.367C602.366 429.957 613.872 440.66 605.748 452.04C596.186 462.073 582.418 450.569 575.634 445.366C569.343 441.334 562.275 451.705 568.112 456.413C617.136 492.708 637.031 426.567 598.634 419.97C594.406 419.243 592.836 423.947 594.814 425.367ZM524.175 405.17C521.748 403.618 518.893 403.085 515.729 404.525C513.256 405.649 508.919 409.398 505.901 414.325C503.836 417.697 502.372 421.651 502.677 425.771C502.748 426.728 502.394 427.433 501.837 427.955C501.396 428.367 500.76 428.669 500.013 428.764C499.379 428.844 498.669 428.772 498.091 428.592C496.993 428.249 496.412 427.536 496.193 426.955C494.08 421.343 494.99 415.08 497.358 409.43C500.555 401.805 506.359 395.418 510.162 393.359C516.67 389.833 524.347 389.671 530.864 393.262C536.411 396.319 539.88 401.253 543.33 406.283C544.063 407.353 544.791 408.414 545.544 409.457C547.051 411.546 547.201 413.619 546.617 415.396C545.971 417.364 544.321 419.026 542.259 419.895C540.353 420.699 538.141 420.812 536.183 419.986C534.529 419.288 533.012 417.929 532.051 415.622C530.434 411.736 527.739 407.45 524.175 405.17V405.17ZM647.441 413.814C645.779 414.68 644.478 414.942 642.634 414.389C641.615 414.083 640.607 413.496 639.818 412.707C639.036 411.925 638.472 410.953 638.252 409.874C637.713 407.211 636.256 404.719 634.181 403.095C632.406 401.706 630.167 400.97 627.683 401.385C625.002 401.833 622.449 403.552 620.69 405.579C620.102 406.257 619.641 407.027 619.178 407.792C618.311 409.223 617.469 410.553 616.274 411.603C615.821 412.003 615.138 412.28 614.477 412.28C614.208 412.28 613.935 412.236 613.676 412.155C611.008 409.478 610.495 407.446 610.581 405.431C610.671 403.319 611.504 401.179 612.85 399.184C616.007 394.502 622.003 390.663 626.048 389.793C631.589 388.603 637.091 390.032 641.503 393.126C646.042 396.311 649.405 401.254 650.454 406.825C650.706 408.167 650.599 409.615 650.088 410.871C649.589 412.098 648.719 413.149 647.441 413.814ZM536.394 355.253C533.069 358.492 529.134 358.994 525.153 359.44C522.941 359.691 521.175 359.892 519.437 360.284C514.661 361.363 509.939 362.986 505.632 365.325C501.129 367.77 496.222 370.718 492.692 374.495C491.853 375.394 491.062 376.337 490.269 377.282C489.547 378.144 488.851 378.974 488.117 379.774C487.274 380.693 486.474 381.656 485.679 382.617C485.187 383.427 485.09 383.627 484.99 383.834C484.841 384.146 484.668 384.495 484.47 384.869C484.198 385.382 483.881 385.944 483.548 386.452C482.994 387.383 482.697 387.639 482.44 387.753C482.014 387.943 481.61 388.037 481.218 387.986C480.851 387.939 480.504 387.762 480.162 387.473C478.455 386.031 477.952 383.664 478.004 381.151C478.082 377.338 479.488 373.117 480.785 370.522C483.799 364.492 487.979 358.224 493.006 353.724C498.742 348.587 505.018 344.698 512.226 342.018C516.705 340.352 521.891 338.823 526.771 339.016C530.284 339.155 533.637 340.199 536.407 342.807C538.107 344.408 538.923 346.685 538.923 348.96C538.923 351.28 538.076 353.615 536.394 355.253ZM654.203 384.918C653.991 385.264 653.699 385.503 653.373 385.646C653.032 385.797 652.651 385.84 652.285 385.778C651.921 385.717 651.575 385.552 651.3 385.3C651.037 385.058 650.837 384.737 650.747 384.345C648.54 374.649 644.253 367.435 635.104 362.784C630.604 360.495 625.429 359.041 620.53 357.882C619.106 357.545 617.602 357.327 616.087 357.106C611.339 356.413 606.557 355.619 603.462 351.781C601.597 349.469 600.814 346.513 601.256 343.809C601.673 341.263 603.161 338.929 605.865 337.53C612.597 334.049 620.964 337.465 627.763 340.374C628.267 340.59 628.762 340.802 629.246 341.007C635.895 343.813 641.959 347.517 646.944 352.815C650.899 357.018 654.563 363.231 656.039 369.623C657.267 374.941 656.978 380.369 654.203 384.918Z" fill="black"/>
<path fill-rule="evenodd" clip-rule="evenodd" d="M701.09 399.282C691.556 463.771 625.002 470.903 613.177 406.881C615.075 406.05 616.44 404.414 616.155 401.238C616.088 387.286 620.419 372.54 633.005 364.781C646.011 356.775 661.232 355.981 676.283 356.183C705.005 355.499 704.401 379.506 701.09 399.282M602.758 371.235C593.744 370.855 582.34 371.173 574.265 376.665C572.045 370.687 566.277 364.304 560.449 360.891C582.111 361.525 604.409 359.393 626.233 357.738C621.009 361.299 616.149 366.649 612.99 372.834C610.059 371.271 605.861 371.417 602.758 371.235M563.026 406.119C538.031 492.155 475.64 454.655 468.838 443.629C456.569 425.383 454.261 381.029 464.948 369.17C480.246 358.446 501.903 361.206 519.975 360.943C553.176 361.391 576.756 371.323 563.026 406.119M730.603 366.548C723.812 365.66 716.555 365.481 710.241 368.471C708.297 360.208 702.194 353.3 695.303 350.26C694.469 349.214 694.594 348.652 691.745 348.809C674.25 343.551 654.673 346.333 637.861 351.725C611.309 353.961 583.452 355.724 556.677 358.805C531.595 347.541 455.902 345.89 451.198 373.653C445.281 372.768 435.204 368.111 430.232 374.428C393.761 368.245 356.076 376.838 319.447 380.665C310.227 382.363 305.478 400.661 315.944 400.411C321.828 398.814 315.763 389.017 323.686 388.28C359.027 384.42 393.595 378.944 429.298 378.303C428.056 384.468 452.912 384.869 453.279 381.269C453.332 381.296 453.388 381.314 453.442 381.338C447.3 404.228 452.844 437.17 463.944 451.364C479.496 469.95 518.541 475.282 535.854 463.324C558.187 452.287 581.42 396.885 574.894 378.479C586.738 374.725 598.447 375.852 610.739 377.764C607.925 385.713 603.067 405.281 610.056 406.978C608.773 445.828 644.13 470.069 676.724 454.132C704.935 440.889 714.801 398.971 711.349 373.528C714.861 380.314 744.349 372.926 730.603 366.548" fill="black"/>
</g>
<defs>
<clipPath id="clip0">
<rect width="1000" height="1000" fill="white"/>
</clipPath>
</defs>
</svg>
